<svg xmlns="http://www.w3.org/2000/svg" viewBox="0 0 920 660" font-family="Inter, -apple-system, BlinkMacSystemFont, 'Segoe UI', Roboto, sans-serif">
  <defs>
    <linearGradient id="tealGrad" x1="0%" y1="0%" x2="100%" y2="100%">
      <stop offset="0%" style="stop-color:#0d9488" /><stop offset="100%" style="stop-color:#0f766e" />
    </linearGradient>
    <linearGradient id="darkTeal" x1="0%" y1="0%" x2="100%" y2="100%">
      <stop offset="0%" style="stop-color:#134e4a" /><stop offset="100%" style="stop-color:#115e59" />
    </linearGradient>
    <linearGradient id="blueGrad" x1="0%" y1="0%" x2="100%" y2="100%">
      <stop offset="0%" style="stop-color:#1e3a5f" /><stop offset="100%" style="stop-color:#2563eb" />
    </linearGradient>
    <linearGradient id="purpleGrad" x1="0%" y1="0%" x2="100%" y2="100%">
      <stop offset="0%" style="stop-color:#3b1f5e" /><stop offset="100%" style="stop-color:#7c3aed" />
    </linearGradient>
    <filter id="ds" x="-3%" y="-3%" width="106%" height="110%">
      <feDropShadow dx="0" dy="2" stdDeviation="3" flood-color="#000" flood-opacity="0.2"/>
    </filter>
    <marker id="arr" markerWidth="8" markerHeight="6" refX="8" refY="3" orient="auto"><path d="M0,0 L8,3 L0,6" fill="#64748b"/></marker>
    <marker id="arrTeal" markerWidth="8" markerHeight="6" refX="8" refY="3" orient="auto"><path d="M0,0 L8,3 L0,6" fill="#5eead4"/></marker>
  </defs>

  <rect width="920" height="660" rx="12" fill="#0f172a"/>
  <text x="460" y="32" text-anchor="middle" fill="#94a3b8" font-size="12" font-weight="600" letter-spacing="2.5">TEALTIGER v1.1.1 — PLATFORM ARCHITECTURE</text>

  <!-- Developer Application box -->
  <rect x="280" y="48" width="360" height="42" rx="8" fill="url(#blueGrad)" filter="url(#ds)"/>
  <text x="460" y="74" text-anchor="middle" fill="#fff" font-size="13" font-weight="600">Developer Application (AI Agent)</text>

  <!-- Arrow -->
  <line x1="460" y1="90" x2="460" y2="112" stroke="#64748b" stroke-width="1.5" marker-end="url(#arr)"/>

  <!-- SDK outer container -->
  <rect x="30" y="116" width="860" height="410" rx="12" fill="#1e293b" stroke="#0d9488" stroke-width="1.5" filter="url(#ds)"/>
  <text x="460" y="140" text-anchor="middle" fill="#5eead4" font-size="12" font-weight="700" letter-spacing="1.5">TEALTIGER SDK v1.1.1</text>

  <!-- Provider row -->
  <rect x="55" y="152" width="810" height="56" rx="8" fill="url(#darkTeal)" opacity="0.85"/>
  <text x="460" y="170" text-anchor="middle" fill="#99f6e4" font-size="10" font-weight="600" letter-spacing="1">MULTI-PROVIDER LAYER</text>

  <!-- Provider chips -->
  <rect x="72" y="178" width="90" height="22" rx="4" fill="#0d9488" opacity="0.7"/><text x="117" y="193" text-anchor="middle" fill="#fff" font-size="9" font-weight="500">TealOpenAI</text>
  <rect x="172" y="178" width="100" height="22" rx="4" fill="#0d9488" opacity="0.7"/><text x="222" y="193" text-anchor="middle" fill="#fff" font-size="9" font-weight="500">TealAnthropic</text>
  <rect x="282" y="178" width="90" height="22" rx="4" fill="#0d9488" opacity="0.7"/><text x="327" y="193" text-anchor="middle" fill="#fff" font-size="9" font-weight="500">TealGemini</text>
  <rect x="382" y="178" width="96" height="22" rx="4" fill="#0d9488" opacity="0.7"/><text x="430" y="193" text-anchor="middle" fill="#fff" font-size="9" font-weight="500">TealBedrock</text>
  <rect x="488" y="178" width="106" height="22" rx="4" fill="#0d9488" opacity="0.7"/><text x="541" y="193" text-anchor="middle" fill="#fff" font-size="9" font-weight="500">TealAzureOpenAI</text>
  <rect x="604" y="178" width="90" height="22" rx="4" fill="#0d9488" opacity="0.7"/><text x="649" y="193" text-anchor="middle" fill="#fff" font-size="9" font-weight="500">TealMistral</text>
  <rect x="704" y="178" width="90" height="22" rx="4" fill="#0d9488" opacity="0.7"/><text x="749" y="193" text-anchor="middle" fill="#fff" font-size="9" font-weight="500">TealCohere</text>

  <!-- Arrow from providers to core -->
  <line x1="460" y1="208" x2="460" y2="228" stroke="#5eead4" stroke-width="1.5" stroke-dasharray="4,3" marker-end="url(#arrTeal)"/>

  <!-- Security Core container -->
  <rect x="55" y="232" width="810" height="280" rx="10" fill="#0f172a" stroke="#0d9488" stroke-width="1" stroke-dasharray="6,3"/>
  <text x="460" y="254" text-anchor="middle" fill="#5eead4" font-size="11" font-weight="700" letter-spacing="1.5">SECURITY &amp; GOVERNANCE CORE</text>

  <!-- TealEngine -->
  <rect x="80" y="268" width="148" height="110" rx="8" fill="url(#tealGrad)" filter="url(#ds)"/>
  <text x="154" y="290" text-anchor="middle" fill="#fff" font-size="12" font-weight="700">TealEngine</text>
  <line x1="104" y1="298" x2="204" y2="298" stroke="#99f6e4" stroke-width="0.5"/>
  <text x="154" y="314" text-anchor="middle" fill="#ccfbf1" font-size="9">Policy Evaluation</text>
  <text x="154" y="330" text-anchor="middle" fill="#ccfbf1" font-size="9">Mode Resolution</text>
  <text x="154" y="346" text-anchor="middle" fill="#ccfbf1" font-size="9">Decision Contract</text>
  <text x="154" y="362" text-anchor="middle" fill="#ccfbf1" font-size="9">Cost Governance</text>

  <!-- TealGuard -->
  <rect x="244" y="268" width="148" height="110" rx="8" fill="url(#tealGrad)" filter="url(#ds)"/>
  <text x="318" y="290" text-anchor="middle" fill="#fff" font-size="12" font-weight="700">TealGuard</text>
  <line x1="268" y1="298" x2="368" y2="298" stroke="#99f6e4" stroke-width="0.5"/>
  <text x="318" y="314" text-anchor="middle" fill="#ccfbf1" font-size="9">PII Detection</text>
  <text x="318" y="330" text-anchor="middle" fill="#ccfbf1" font-size="9">Prompt Injection</text>
  <text x="318" y="346" text-anchor="middle" fill="#ccfbf1" font-size="9">Content Moderation</text>
  <text x="318" y="362" text-anchor="middle" fill="#ccfbf1" font-size="9">Custom Patterns</text>

  <!-- TealMonitor -->
  <rect x="408" y="268" width="148" height="110" rx="8" fill="url(#tealGrad)" filter="url(#ds)"/>
  <text x="482" y="290" text-anchor="middle" fill="#fff" font-size="12" font-weight="700">TealMonitor</text>
  <line x1="432" y1="298" x2="532" y2="298" stroke="#99f6e4" stroke-width="0.5"/>
  <text x="482" y="314" text-anchor="middle" fill="#ccfbf1" font-size="9">Behavioral Baselines</text>
  <text x="482" y="330" text-anchor="middle" fill="#ccfbf1" font-size="9">Anomaly Detection</text>
  <text x="482" y="346" text-anchor="middle" fill="#ccfbf1" font-size="9">Cost Tracking</text>
  <text x="482" y="362" text-anchor="middle" fill="#ccfbf1" font-size="9">Spend Velocity</text>

  <!-- TealCircuit -->
  <rect x="572" y="268" width="148" height="110" rx="8" fill="url(#tealGrad)" filter="url(#ds)"/>
  <text x="646" y="290" text-anchor="middle" fill="#fff" font-size="12" font-weight="700">TealCircuit</text>
  <line x1="596" y1="298" x2="696" y2="298" stroke="#99f6e4" stroke-width="0.5"/>
  <text x="646" y="314" text-anchor="middle" fill="#ccfbf1" font-size="9">Circuit Breaker</text>
  <text x="646" y="330" text-anchor="middle" fill="#ccfbf1" font-size="9">Failover Logic</text>
  <text x="646" y="346" text-anchor="middle" fill="#ccfbf1" font-size="9">State Machine</text>
  <text x="646" y="362" text-anchor="middle" fill="#ccfbf1" font-size="9">Degradation</text>

  <!-- TealAudit -->
  <rect x="80" y="392" width="640" height="106" rx="8" fill="url(#tealGrad)" filter="url(#ds)"/>
  <text x="400" y="414" text-anchor="middle" fill="#fff" font-size="12" font-weight="700">TealAudit</text>
  <line x1="120" y1="422" x2="680" y2="422" stroke="#99f6e4" stroke-width="0.5"/>
  <text x="180" y="442" text-anchor="middle" fill="#ccfbf1" font-size="9">Versioned Events</text>
  <text x="320" y="442" text-anchor="middle" fill="#ccfbf1" font-size="9">PII Redaction (5 levels)</text>
  <text x="480" y="442" text-anchor="middle" fill="#ccfbf1" font-size="9">Correlation IDs</text>
  <text x="620" y="442" text-anchor="middle" fill="#ccfbf1" font-size="9">Cost Metadata</text>
  <text x="180" y="462" text-anchor="middle" fill="#ccfbf1" font-size="9">Immutable Schema</text>
  <text x="320" y="462" text-anchor="middle" fill="#ccfbf1" font-size="9">OpenTelemetry Traces</text>
  <text x="480" y="462" text-anchor="middle" fill="#ccfbf1" font-size="9">Multi-Tenant</text>
  <text x="620" y="462" text-anchor="middle" fill="#ccfbf1" font-size="9">JUnit Export</text>

  <!-- Policy Test Harness box -->
  <rect x="736" y="392" width="116" height="106" rx="8" fill="#1e293b" stroke="#0d9488" stroke-width="1" filter="url(#ds)"/>
  <text x="794" y="414" text-anchor="middle" fill="#5eead4" font-size="10" font-weight="700">Policy Test</text>
  <text x="794" y="428" text-anchor="middle" fill="#5eead4" font-size="10" font-weight="700">Harness</text>
  <line x1="752" y1="436" x2="836" y2="436" stroke="#0d9488" stroke-width="0.5"/>
  <text x="794" y="452" text-anchor="middle" fill="#94a3b8" font-size="8">Test Suites</text>
  <text x="794" y="466" text-anchor="middle" fill="#94a3b8" font-size="8">CI/CD Export</text>
  <text x="794" y="480" text-anchor="middle" fill="#94a3b8" font-size="8">Test Corpora</text>

  <!-- Arrow from SDK to LLMs -->
  <line x1="460" y1="526" x2="460" y2="556" stroke="#64748b" stroke-width="1.5" marker-end="url(#arr)"/>

  <!-- LLM Provider APIs -->
  <rect x="80" y="560" width="760" height="80" rx="10" fill="url(#purpleGrad)" filter="url(#ds)"/>
  <text x="460" y="584" text-anchor="middle" fill="#e9d5ff" font-size="11" font-weight="600" letter-spacing="1">LLM PROVIDER APIs</text>

  <!-- Provider names -->
  <text x="140" y="608" text-anchor="middle" fill="#c4b5fd" font-size="9">OpenAI</text>
  <text x="240" y="608" text-anchor="middle" fill="#c4b5fd" font-size="9">Anthropic</text>
  <text x="340" y="608" text-anchor="middle" fill="#c4b5fd" font-size="9">Google AI</text>
  <text x="440" y="608" text-anchor="middle" fill="#c4b5fd" font-size="9">AWS Bedrock</text>
  <text x="550" y="608" text-anchor="middle" fill="#c4b5fd" font-size="9">Azure OpenAI</text>
  <text x="660" y="608" text-anchor="middle" fill="#c4b5fd" font-size="9">Mistral AI</text>
  <text x="760" y="608" text-anchor="middle" fill="#c4b5fd" font-size="9">Cohere</text>

  <!-- 95%+ badge -->
  <rect x="370" y="624" width="180" height="22" rx="11" fill="#0d9488" opacity="0.3"/>
  <text x="460" y="639" text-anchor="middle" fill="#5eead4" font-size="9" font-weight="600">95%+ Market Coverage</text>
</svg>