<svg xmlns="http://www.w3.org/2000/svg" viewBox="0 0 820 420" font-family="Inter, -apple-system, BlinkMacSystemFont, 'Segoe UI', Roboto, sans-serif">
  <defs>
    <filter id="ds8"><feDropShadow dx="0" dy="2" stdDeviation="3" flood-color="#000" flood-opacity="0.2"/></filter>
  </defs>

  <rect width="820" height="420" rx="12" fill="#0f172a"/>
  <text x="410" y="30" text-anchor="middle" fill="#94a3b8" font-size="12" font-weight="600" letter-spacing="2.5">OWASP TOP 10 FOR AGENTIC APPLICATIONS — COVERAGE MAP</text>

  <!-- Legend -->
  <rect x="220" y="42" width="380" height="24" rx="6" fill="#1e293b"/>
  <circle cx="250" cy="54" r="5" fill="#059669"/><text x="262" y="58" fill="#94a3b8" font-size="9">Full Coverage</text>
  <circle cx="370" cy="54" r="5" fill="#d97706"/><text x="382" y="58" fill="#94a3b8" font-size="9">Partial / Support</text>
  <circle cx="500" cy="54" r="5" fill="#6b7280"/><text x="512" y="58" fill="#94a3b8" font-size="9">Platform Required</text>

  <!-- Full Coverage Row 1 -->
  <rect x="40" y="80" width="240" height="52" rx="8" fill="#065f46" stroke="#10b981" stroke-width="1" filter="url(#ds8)"/>
  <text x="60" y="100" fill="#10b981" font-size="10" font-weight="700">ASI02</text>
  <text x="110" y="100" fill="#fff" font-size="10" font-weight="600">Tool Misuse</text>
  <text x="60" y="120" fill="#a7f3d0" font-size="9">TealEngine — policy enforcement</text>

  <rect x="290" y="80" width="240" height="52" rx="8" fill="#065f46" stroke="#10b981" stroke-width="1" filter="url(#ds8)"/>
  <text x="310" y="100" fill="#10b981" font-size="10" font-weight="700">ASI03</text>
  <text x="360" y="100" fill="#fff" font-size="10" font-weight="600">Access Control</text>
  <text x="310" y="120" fill="#a7f3d0" font-size="9">TealEngine — identity policies</text>

  <rect x="540" y="80" width="240" height="52" rx="8" fill="#065f46" stroke="#10b981" stroke-width="1" filter="url(#ds8)"/>
  <text x="560" y="100" fill="#10b981" font-size="10" font-weight="700">ASI05</text>
  <text x="610" y="100" fill="#fff" font-size="10" font-weight="600">Unsafe Code Exec</text>
  <text x="560" y="120" fill="#a7f3d0" font-size="9">TealEngine — code execution policies</text>

  <!-- Full Coverage Row 2 -->
  <rect x="40" y="142" width="240" height="52" rx="8" fill="#065f46" stroke="#10b981" stroke-width="1" filter="url(#ds8)"/>
  <text x="60" y="162" fill="#10b981" font-size="10" font-weight="700">ASI06</text>
  <text x="110" y="162" fill="#fff" font-size="10" font-weight="600">Memory Corruption</text>
  <text x="60" y="182" fill="#a7f3d0" font-size="9">TealEngine + TealGuard</text>

  <rect x="290" y="142" width="240" height="52" rx="8" fill="#065f46" stroke="#10b981" stroke-width="1" filter="url(#ds8)"/>
  <text x="310" y="162" fill="#10b981" font-size="10" font-weight="700">ASI08</text>
  <text x="360" y="162" fill="#fff" font-size="10" font-weight="600">Cascading Failures</text>
  <text x="310" y="182" fill="#a7f3d0" font-size="9">TealCircuit — circuit breaker</text>

  <rect x="540" y="142" width="240" height="52" rx="8" fill="#065f46" stroke="#10b981" stroke-width="1" filter="url(#ds8)"/>
  <text x="560" y="162" fill="#10b981" font-size="10" font-weight="700">ASI10</text>
  <text x="610" y="162" fill="#fff" font-size="10" font-weight="600">Rogue Agents</text>
  <text x="560" y="182" fill="#a7f3d0" font-size="9">TealAudit — behavioral audit trail</text>

  <!-- Partial Coverage -->
  <rect x="40" y="214" width="240" height="52" rx="8" fill="#78350f" stroke="#f59e0b" stroke-width="1" filter="url(#ds8)"/>
  <text x="60" y="234" fill="#f59e0b" font-size="10" font-weight="700">ASI01</text>
  <text x="110" y="234" fill="#fff" font-size="10" font-weight="600">Prompt Injection</text>
  <text x="60" y="254" fill="#fde68a" font-size="9">TealGuard + TealEngine — partial</text>

  <rect x="290" y="214" width="240" height="52" rx="8" fill="#78350f" stroke="#f59e0b" stroke-width="1" filter="url(#ds8)"/>
  <text x="310" y="234" fill="#f59e0b" font-size="10" font-weight="700">ASI04</text>
  <text x="360" y="234" fill="#fff" font-size="10" font-weight="600">Supply Chain</text>
  <text x="310" y="254" fill="#fde68a" font-size="9">TealAudit — component tracking</text>

  <rect x="540" y="214" width="240" height="52" rx="8" fill="#78350f" stroke="#f59e0b" stroke-width="1" filter="url(#ds8)"/>
  <text x="560" y="234" fill="#f59e0b" font-size="10" font-weight="700">ASI09</text>
  <text x="610" y="234" fill="#fff" font-size="10" font-weight="600">Harmful Content</text>
  <text x="560" y="254" fill="#fde68a" font-size="9">TealGuard — content moderation</text>

  <!-- Platform Required -->
  <rect x="290" y="286" width="240" height="52" rx="8" fill="#374151" stroke="#6b7280" stroke-width="1" filter="url(#ds8)"/>
  <text x="310" y="306" fill="#9ca3af" font-size="10" font-weight="700">ASI07</text>
  <text x="360" y="306" fill="#d1d5db" font-size="10" font-weight="600">Inter-Agent Comms</text>
  <text x="310" y="326" fill="#9ca3af" font-size="9">Future platform feature</text>

  <!-- Score bar -->
  <rect x="140" y="356" width="540" height="40" rx="10" fill="#1e293b" stroke="#334155" stroke-width="1"/>
  <rect x="150" y="366" width="378" height="20" rx="6" fill="#059669"/>
  <rect x="528" y="366" width="54" height="20" rx="0" fill="#d97706"/>
  <rect x="582" y="366" width="18" height="20" rx="0" fill="#6b7280"/>
  <rect x="600" y="366" width="70" height="20" rx="6" fill="#1e293b"/>
  <text x="340" y="381" text-anchor="middle" fill="#fff" font-size="10" font-weight="700">6 Full</text>
  <text x="555" y="381" text-anchor="middle" fill="#fff" font-size="9" font-weight="600">3</text>
  <text x="591" y="381" text-anchor="middle" fill="#fff" font-size="9">1</text>
  <text x="410" y="408" text-anchor="middle" fill="#5eead4" font-size="11" font-weight="600">7 / 10 ASIs covered — SDK-only, zero infrastructure</text>
</svg>