<svg xmlns="http://www.w3.org/2000/svg" viewBox="0 0 820 280" font-family="Inter, -apple-system, BlinkMacSystemFont, 'Segoe UI', Roboto, sans-serif">
  <defs>
    <linearGradient id="tg10" x1="0%" y1="0%" x2="100%" y2="100%">
      <stop offset="0%" style="stop-color:#0d9488"/><stop offset="100%" style="stop-color:#0f766e"/>
    </linearGradient>
    <filter id="ds10"><feDropShadow dx="0" dy="2" stdDeviation="3" flood-color="#000" flood-opacity="0.2"/></filter>
    <marker id="a10" markerWidth="10" markerHeight="7" refX="10" refY="3.5" orient="auto"><path d="M0,0 L10,3.5 L0,7" fill="#5eead4"/></marker>
  </defs>

  <rect width="820" height="280" rx="12" fill="#0f172a"/>
  <text x="410" y="28" text-anchor="middle" fill="#94a3b8" font-size="12" font-weight="600" letter-spacing="2.5">TEALMONITOR — BEHAVIORAL ANOMALY DETECTION</text>

  <!-- Real-Time Metrics -->
  <rect x="30" y="48" width="230" height="210" rx="10" fill="#1e293b" stroke="#0d9488" stroke-width="1" filter="url(#ds10)"/>
  <text x="145" y="72" text-anchor="middle" fill="#5eead4" font-size="11" font-weight="700">Real-Time Metrics</text>
  <line x1="46" y1="80" x2="244" y2="80" stroke="#334155" stroke-width="1"/>

  <rect x="46" y="90" width="198" height="46" rx="6" fill="#0d9488" opacity="0.15"/>
  <text x="56" y="108" fill="#5eead4" font-size="10" font-weight="600">Cost Tracking</text>
  <text x="56" y="124" fill="#94a3b8" font-size="8">Per request / session / agent / tenant</text>

  <rect x="46" y="142" width="198" height="46" rx="6" fill="#0f172a"/>
  <text x="56" y="160" fill="#5eead4" font-size="10" font-weight="600">Request Patterns</text>
  <text x="56" y="176" fill="#94a3b8" font-size="8">Rate, success/failure, latency</text>

  <rect x="46" y="194" width="198" height="46" rx="6" fill="#0d9488" opacity="0.15"/>
  <text x="56" y="212" fill="#5eead4" font-size="10" font-weight="600">Tool Usage</text>
  <text x="56" y="228" fill="#94a3b8" font-size="8">Frequency, unusual patterns</text>

  <!-- Arrow -->
  <line x1="260" y1="153" x2="296" y2="153" stroke="#5eead4" stroke-width="2" marker-end="url(#a10)"/>

  <!-- Anomaly Detection -->
  <rect x="300" y="48" width="230" height="210" rx="10" fill="url(#tg10)" filter="url(#ds10)"/>
  <text x="415" y="72" text-anchor="middle" fill="#fff" font-size="11" font-weight="700">Anomaly Detection</text>
  <line x1="316" y1="80" x2="514" y2="80" stroke="#99f6e4" stroke-width="0.5"/>

  <text x="415" y="104" text-anchor="middle" fill="#ccfbf1" font-size="10" font-weight="600">Baseline Calculator</text>
  <text x="415" y="120" text-anchor="middle" fill="#99f6e4" font-size="9">7-day rolling window</text>

  <text x="415" y="148" text-anchor="middle" fill="#ccfbf1" font-size="10" font-weight="600">Threshold Detection</text>
  <text x="415" y="164" text-anchor="middle" fill="#99f6e4" font-size="9">Current vs baseline ratio</text>

  <text x="415" y="192" text-anchor="middle" fill="#ccfbf1" font-size="10" font-weight="600">Spend Velocity</text>
  <text x="415" y="208" text-anchor="middle" fill="#99f6e4" font-size="9">USD/min spike detection</text>

  <text x="415" y="236" text-anchor="middle" fill="#ccfbf1" font-size="10" font-weight="600">Cost Risk Score</text>
  <text x="415" y="252" text-anchor="middle" fill="#99f6e4" font-size="9">Magnitude + budget % + velocity</text>

  <!-- Arrow -->
  <line x1="530" y1="153" x2="566" y2="153" stroke="#5eead4" stroke-width="2" marker-end="url(#a10)"/>

  <!-- Automated Response -->
  <rect x="570" y="48" width="220" height="210" rx="10" fill="#1e293b" stroke="#0d9488" stroke-width="1" filter="url(#ds10)"/>
  <text x="680" y="72" text-anchor="middle" fill="#5eead4" font-size="11" font-weight="700">Automated Response</text>
  <line x1="586" y1="80" x2="774" y2="80" stroke="#334155" stroke-width="1"/>

  <rect x="586" y="90" width="188" height="40" rx="6" fill="#065f46" stroke="#10b981" stroke-width="1"/>
  <text x="680" y="108" text-anchor="middle" fill="#fff" font-size="10" font-weight="600">Alert Generation</text>
  <text x="680" y="122" text-anchor="middle" fill="#a7f3d0" font-size="8">COST_ANOMALY_DETECTED</text>

  <rect x="586" y="138" width="188" height="40" rx="6" fill="#92400e" stroke="#f59e0b" stroke-width="1"/>
  <text x="680" y="156" text-anchor="middle" fill="#fff" font-size="10" font-weight="600">Circuit Breaker</text>
  <text x="680" y="170" text-anchor="middle" fill="#fde68a" font-size="8">TealCircuit integration</text>

  <rect x="586" y="186" width="188" height="40" rx="6" fill="#1e3a5f" stroke="#3b82f6" stroke-width="1"/>
  <text x="680" y="204" text-anchor="middle" fill="#fff" font-size="10" font-weight="600">Audit Event</text>
  <text x="680" y="218" text-anchor="middle" fill="#93c5fd" font-size="8">Full cost metadata logged</text>

  <rect x="586" y="234" width="188" height="18" rx="4" fill="#7f1d1d" stroke="#ef4444" stroke-width="1"/>
  <text x="680" y="247" text-anchor="middle" fill="#fca5a5" font-size="8" font-weight="600">MODEL_DOWNGRADED / DENY</text>
</svg>